<?xml version="1.0" encoding="UTF-8" standalone="no"?>
<!-- Created with Inkscape (http://www.inkscape.org/) -->

<svg
   width="14.423495mm"
   height="10.101645mm"
   viewBox="0 0 14.423496 10.101645"
   version="1.1"
   id="svg1"
   xmlns:xlink="http://www.w3.org/1999/xlink"
   xmlns="http://www.w3.org/2000/svg"
   xmlns:svg="http://www.w3.org/2000/svg">
  <defs
     id="defs1">
    <linearGradient
       id="linearGradient19">
      <stop
         style="stop-color:#e3e827;stop-opacity:1;"
         offset="0"
         id="stop19" />
      <stop
         style="stop-color:#e82727;stop-opacity:1;"
         offset="1"
         id="stop20" />
    </linearGradient>
    <linearGradient
       xlink:href="#linearGradient19"
       id="linearGradient20"
       x1="37.521034"
       y1="55.502525"
       x2="50.784531"
       y2="55.502525"
       gradientUnits="userSpaceOnUse" />
    <filter
       style="color-interpolation-filters:sRGB"
       id="filter93"
       x="-0.03618956"
       y="-0.053087688"
       width="1.0874581"
       height="1.1172353">
      <feFlood
         result="flood"
         in="SourceGraphic"
         flood-opacity="0.647059"
         flood-color="rgb(0,0,0)"
         id="feFlood92" />
      <feGaussianBlur
         result="blur"
         in="SourceGraphic"
         stdDeviation="0.200000"
         id="feGaussianBlur92" />
      <feOffset
         result="offset"
         in="blur"
         dx="0.200000"
         dy="0.100000"
         id="feOffset92" />
      <feComposite
         result="comp1"
         operator="out"
         in="flood"
         in2="offset"
         id="feComposite92" />
      <feComposite
         result="comp2"
         operator="in"
         in="comp1"
         in2="SourceGraphic"
         id="feComposite93" />
    </filter>
  </defs>
  <g
     id="layer1"
     transform="translate(-37.041034,-50.501704)">
    <path
       d="m 41.466909,51.921683 c 0.204666,-0.439589 1.014223,-0.950001 2.022736,-0.939829 1.008513,0.01017 1.850011,0.649398 1.870681,1.948195 v 7.0933 h -0.956011 v -7.036456 c 0.0092,-0.818965 -0.489659,-1.200183 -1.193721,-1.193722 -0.704062,0.0065 -1.29302,0.402675 -1.291594,1.205581 v 3.677827 h -0.961492 v -3.663848 c 0,-0.81304 -0.482311,-1.21956 -1.193721,-1.21956 -0.71141,0 -1.286787,0.460761 -1.286787,1.042502 v 3.840906 h -0.955965 c 0,0 0.0025,-1.961062 0.0025,-3.824853 0,-0.999507 1.067249,-1.859553 2.285611,-1.86174 1.218362,-0.0022 1.594881,0.722425 1.657763,0.931697 z m 4.227508,1.907533 c 0,-0.547768 0.106798,-1.040415 0.320393,-1.477941 0.21704,-0.437526 0.516762,-0.775144 0.899167,-1.012855 0.385849,-0.237711 0.825098,-0.356566 1.317745,-0.356566 0.761363,0 1.376311,0.263549 1.844842,0.790647 0.471977,0.527098 0.707965,1.228173 0.707965,2.103224 v 0.06718 c 0,0.544323 -0.105075,1.033525 -0.315225,1.467606 -0.206705,0.430635 -0.504705,0.766531 -0.894,1.007687 -0.385849,0.241156 -0.830265,0.361734 -1.333247,0.361734 -0.757919,0 -1.372866,-0.263549 -1.844843,-0.790647 -0.468531,-0.527098 -0.702797,-1.224728 -0.702797,-2.092889 z m 0.961178,0.113688 c 0,0.620115 0.142971,1.11793 0.428913,1.493444 0.289387,0.375514 0.675237,0.563271 1.157549,0.563271 0.485757,0 0.871606,-0.18948 1.157548,-0.568439 0.285942,-0.382404 0.428913,-0.916392 0.428913,-1.601964 0,-0.613225 -0.146416,-1.109317 -0.439248,-1.488276 -0.289387,-0.382405 -0.675237,-0.573607 -1.157548,-0.573607 -0.471977,0 -0.852659,0.187757 -1.142046,0.563271 -0.289387,0.375515 -0.434081,0.912948 -0.434081,1.6123 z"
       id="path20"
       style="font-size:10.5833px;line-height:1.25;font-family:Roboto;-inkscape-font-specification:'Roboto, Normal';letter-spacing:0px;word-spacing:0px;white-space:pre;inline-size:15.5046;display:inline;mix-blend-mode:normal;fill:url(#linearGradient20);fill-rule:nonzero;stroke-width:0.264583"
       aria-label="mo"
       transform="translate(-1.1041667e-6)" />
    <path
       d="m 41.466909,51.921683 c 0.204666,-0.439589 1.014223,-0.950001 2.022736,-0.939829 1.008513,0.01017 1.850011,0.649398 1.870681,1.948195 v 7.0933 h -0.956011 v -7.036456 c 0.0092,-0.818965 -0.489659,-1.200183 -1.193721,-1.193722 -0.704062,0.0065 -1.29302,0.402675 -1.291594,1.205581 v 3.677827 h -0.961492 v -3.663848 c 0,-0.81304 -0.482311,-1.21956 -1.193721,-1.21956 -0.71141,0 -1.286787,0.460761 -1.286787,1.042502 v 3.840906 h -0.955965 c 0,0 0.0025,-1.961062 0.0025,-3.824853 0,-0.999507 1.067249,-1.859553 2.285611,-1.86174 1.218362,-0.0022 1.594881,0.722425 1.657763,0.931697 z m 4.227508,1.907533 c 0,-0.547768 0.106798,-1.040415 0.320393,-1.477941 0.21704,-0.437526 0.516762,-0.775144 0.899167,-1.012855 0.385849,-0.237711 0.825098,-0.356566 1.317745,-0.356566 0.761363,0 1.376311,0.263549 1.844842,0.790647 0.471977,0.527098 0.707965,1.228173 0.707965,2.103224 v 0.06718 c 0,0.544323 -0.105075,1.033525 -0.315225,1.467606 -0.206705,0.430635 -0.504705,0.766531 -0.894,1.007687 -0.385849,0.241156 -0.830265,0.361734 -1.333247,0.361734 -0.757919,0 -1.372866,-0.263549 -1.844843,-0.790647 -0.468531,-0.527098 -0.702797,-1.224728 -0.702797,-2.092889 z m 0.961178,0.113688 c 0,0.620115 0.142971,1.11793 0.428913,1.493444 0.289387,0.375514 0.675237,0.563271 1.157549,0.563271 0.485757,0 0.871606,-0.18948 1.157548,-0.568439 0.285942,-0.382404 0.428913,-0.916392 0.428913,-1.601964 0,-0.613225 -0.146416,-1.109317 -0.439248,-1.488276 -0.289387,-0.382405 -0.675237,-0.573607 -1.157548,-0.573607 -0.471977,0 -0.852659,0.187757 -1.142046,0.563271 -0.289387,0.375515 -0.434081,0.912948 -0.434081,1.6123 z"
       id="path86"
       style="font-size:10.5833px;line-height:1.25;font-family:Roboto;-inkscape-font-specification:'Roboto, Normal';letter-spacing:0px;word-spacing:0px;white-space:pre;inline-size:15.5046;display:inline;mix-blend-mode:normal;fill:#58ff30;fill-opacity:1;fill-rule:nonzero;stroke-width:0.264583;filter:url(#filter93)"
       aria-label="mo"
       transform="translate(-1.1041667e-6)" />
  </g>
</svg>
